<svg width="35" height="35" viewBox="0 0 35 35" fill="none" xmlns="http://www.w3.org/2000/svg">
<path fill-rule="evenodd" clip-rule="evenodd" d="M8.83741 7.0875C11.1348 4.79006 14.2508 3.49937 17.4999 3.49937C20.749 3.49937 23.865 4.79006 26.1624 7.0875C28.4598 9.38494 29.7505 12.5009 29.7505 15.75C29.7505 18.9991 28.4598 22.1151 26.1624 24.4125L17.4999 33.075L8.83741 24.4125C7.69976 23.275 6.79732 21.9245 6.18162 20.4382C5.56592 18.9518 5.24902 17.3588 5.24902 15.75C5.24902 14.1412 5.56592 12.5482 6.18162 11.0618C6.79732 9.57552 7.69976 8.22503 8.83741 7.0875ZM17.4999 19.25C18.4282 19.25 19.3184 18.8812 19.9748 18.2249C20.6312 17.5685 20.9999 16.6783 20.9999 15.75C20.9999 14.8217 20.6312 13.9315 19.9748 13.2751C19.3184 12.6187 18.4282 12.25 17.4999 12.25C16.5716 12.25 15.6814 12.6187 15.025 13.2751C14.3687 13.9315 13.9999 14.8217 13.9999 15.75C13.9999 16.6783 14.3687 17.5685 15.025 18.2249C15.6814 18.8812 16.5716 19.25 17.4999 19.25Z" fill="white" stroke="black"/>
<path d="M25.4505 12.9862L20.3543 12.2106L18.0761 7.37414C18.0139 7.24172 17.9115 7.13453 17.7851 7.06937C17.4679 6.90542 17.0825 7.04205 16.924 7.37414L14.6458 12.2106L9.54954 12.9862C9.40904 13.0072 9.28057 13.0766 9.18222 13.1817C9.06332 13.3096 8.9978 13.4818 9.00006 13.6603C9.00231 13.8389 9.07217 14.0092 9.19427 14.1338L12.8815 17.8983L12.0104 23.214C11.9899 23.3376 12.003 23.4648 12.0481 23.5811C12.0932 23.6973 12.1684 23.7981 12.2654 23.8718C12.3624 23.9456 12.4771 23.9894 12.5967 23.9983C12.7162 24.0072 12.8357 23.9809 12.9417 23.9223L17.5 21.4127L22.0584 23.9223C22.1828 23.9917 22.3273 24.0148 22.4658 23.9896C22.8151 23.9265 23.0499 23.5797 22.9897 23.214L22.1186 17.8983L25.8058 14.1338C25.9062 14.0308 25.9724 13.8963 25.9925 13.7492C26.0467 13.3813 25.8018 13.0408 25.4505 12.9862Z" fill="#5698F3"/>
</svg>
