<svg width="35" height="35" viewBox="0 0 35 35" fill="none" xmlns="http://www.w3.org/2000/svg">
<path fill-rule="evenodd" clip-rule="evenodd" d="M8.83741 7.0875C11.1348 4.79006 14.2508 3.49937 17.4999 3.49937C20.749 3.49937 23.865 4.79006 26.1624 7.0875C28.4598 9.38494 29.7505 12.5009 29.7505 15.75C29.7505 18.9991 28.4598 22.1151 26.1624 24.4125L17.4999 33.075L8.83741 24.4125C7.69976 23.275 6.79732 21.9245 6.18162 20.4382C5.56592 18.9518 5.24902 17.3588 5.24902 15.75C5.24902 14.1412 5.56592 12.5482 6.18162 11.0618C6.79732 9.57552 7.69976 8.22503 8.83741 7.0875ZM17.4999 19.25C18.4282 19.25 19.3184 18.8812 19.9748 18.2249C20.6312 17.5685 20.9999 16.6783 20.9999 15.75C20.9999 14.8217 20.6312 13.9315 19.9748 13.2751C19.3184 12.6187 18.4282 12.25 17.4999 12.25C16.5716 12.25 15.6814 12.6187 15.025 13.2751C14.3687 13.9315 13.9999 14.8217 13.9999 15.75C13.9999 16.6783 14.3687 17.5685 15.025 18.2249C15.6814 18.8812 16.5716 19.25 17.4999 19.25Z" fill="white" stroke="black"/>
<path fill-rule="evenodd" clip-rule="evenodd" d="M17.4 10.4717C22.06 5.36231 33.7111 14.3032 17.4 25.8C1.08886 14.3044 12.74 5.36231 17.4 10.4717Z" fill="#D84243"/>
</svg>
